<svg width="16" height="14" viewBox="0 0 16 14" fill="none" xmlns="http://www.w3.org/2000/svg">
<path d="M8 14L14.7876 7.15848C15.329 6.61275 15.6888 5.97829 15.8671 5.2551C16.0454 4.5319 16.0443 3.81203 15.8638 3.09549C15.6833 2.37895 15.3246 1.75448 14.7876 1.22206C14.2373 0.676337 13.609 0.31363 12.9025 0.133941C12.196 -0.0457492 11.4906 -0.04464 10.7863 0.137268C10.0821 0.319176 9.45259 0.680774 8.89797 1.22206L8 2.10055L7.10203 1.22206C6.55181 0.680774 5.92345 0.319176 5.21696 0.137268C4.51047 -0.04464 3.80398 -0.0457492 3.0975 0.133941C2.39101 0.31363 1.76265 0.676337 1.21243 1.22206C0.675406 1.75448 0.31666 2.37895 0.136186 3.09549C-0.0442881 3.81203 -0.0453885 4.5319 0.132884 5.2551C0.311157 5.97829 0.671004 6.61275 1.21243 7.15848L8 14Z" fill="#FF6961"/>
</svg>
